<svg width="1064" height="985" viewBox="0 0 1064 985" fill="none" xmlns="http://www.w3.org/2000/svg">
<path d="M516 984.237C407.284 984.237 319.153 896.105 319.153 787.39V0C427.868 0 516 88.1315 516 196.847V984.237Z" fill="#DC4E0C"/>
<path d="M505.762 372.215L366.57 511.407L-4.47204e-05 144.838C76.8736 67.9641 201.51 67.964 278.384 144.838L505.762 372.215Z" fill="#DC4E0C"/>
<path d="M363.549 338.057L502.741 477.249L139.192 840.798C62.3187 763.925 62.3187 639.288 139.192 562.414L363.549 338.057Z" fill="#DC4E0C"/>
<path d="M548 0C656.716 0 744.847 88.1316 744.847 196.847V984.237C636.132 984.237 548 896.105 548 787.39V0Z" fill="#DC4E0C"/>
<path d="M558.238 612.022L697.43 472.829L1064 839.399C987.126 916.273 862.49 916.273 785.616 839.399L558.238 612.022Z" fill="#DC4E0C"/>
<path d="M700.451 646.18L561.259 506.988L924.808 143.439C1001.68 220.312 1001.68 344.949 924.808 421.823L700.451 646.18Z" fill="#DC4E0C"/>
</svg>
